<svg height="100px" width="100px" xmlns:dc="http://purl.org/dc/elements/1.1/" xmlns:cc="http://creativecommons.org/ns#" xmlns:rdf="http://www.w3.org/1999/02/22-rdf-syntax-ns#" xmlns:svg="http://www.w3.org/2000/svg" xmlns="http://www.w3.org/2000/svg" xmlns:sodipodi="http://sodipodi.sourceforge.net/DTD/sodipodi-0.dtd" xmlns:inkscape="http://www.inkscape.org/namespaces/inkscape" viewBox="0 0 12.7 15.875" version="1.1" x="0px" y="0px"><g transform="translate(0,-284.29998)"><path style="" d="m 7.1314,285.6105 a 0.7814,0.7814 0 1 0 -1.5628,0 0.7814,0.7814 0 1 0 1.5628,0 z" fill="#ffffff" stroke="none"/><path style="" d="m 3.0988,290.9444 a 8.6044455,8.6044455 0 0 0 0.7276,3.884 2.7599907,2.7599907 0 0 0 5.0473,0 8.6044455,8.6044455 0 0 0 0.7276,-3.884 0.18271098,0.18271098 0 0 0 -0.3646,0.024 8.2391755,8.2391755 0 0 1 -0.697,3.712 2.3947205,2.3947205 0 0 1 -4.3793,0 8.2391755,8.2391755 0 0 1 -0.697,-3.712 0.18271098,0.18271098 0 0 0 -0.3646,-0.024 z" fill="#ffffff" stroke="none"/><path style="" d="m 6.2137,293.4637 a 0.48061856,0.48061856 0 0 1 -0.9612,0 v -5.0049 a 0.05492785,0.05492785 0 0 0 -0.1052,-0.022 l -0.2807,0.6348 a 1.0985567,1.0985567 0 0 1 -0.2197,0.3242 l -1.0035,1.025 a 0.41198374,0.41198374 0 0 1 -0.5888,-0.5764 l 1.0035,-1.025 a 0.27463914,0.27463914 0 0 0 0.055,-0.081 l 0.6523,-1.4751 a 0.82391747,0.82391747 0 0 1 0.7535,-0.4906 h 1.6623 a 0.82391747,0.82391747 0 0 1 0.7535,0.4906 l 0.6523,1.4751 a 0.27463914,0.27463914 0 0 0 0.055,0.081 l 1.0035,1.025 a 0.41198374,0.41198374 0 0 1 -0.5888,0.5764 l -1.0035,-1.025 a 1.0985567,1.0985567 0 0 1 -0.2197,-0.3242 l -0.2807,-0.6348 a 0.05492785,0.05492785 0 0 0 -0.1052,0.022 v 6.4554 a 0.48061856,0.48061856 0 0 1 -0.9612,0 v -3.8675 a 0.13635,0.13635 0 0 0 -0.2727,0 z" fill="#ffffff" stroke="none"/></g></svg>
