<svg xmlns="http://www.w3.org/2000/svg" xmlns:xlink="http://www.w3.org/1999/xlink" version="1.1" x="0px" y="0px" viewBox="29.6 85.2 452.8 427" style="enable-background:new 29.6 85.2 452.8 341.6;" xml:space="preserve"><g><g><rect x="29.6" y="278.3" width="35.9" height="69.2"/><path d="M256,229.4c39.8,0,72.1-32.3,72.1-72.1S295.8,85.2,256,85.2c-39.8,0-72.2,32.3-72.2,72.1    S216.2,229.4,256,229.4z M218.8,153.7h33.6v-33.6c0-2,1.6-3.6,3.6-3.6c2,0,3.6,1.6,3.6,3.6v33.6h33.6c2,0,3.6,1.6,3.6,3.6    s-1.6,3.6-3.6,3.6h-33.6v33.6c0,2-1.6,3.6-3.6,3.6c-2,0-3.6-1.6-3.6-3.6v-33.6h-33.6c-2,0-3.6-1.6-3.6-3.6    S216.8,153.7,218.8,153.7z"/><path d="M355.9,278.3H156.1v69.2h199.9V278.3z M314,316.5H198c-2,0-3.6-1.6-3.6-3.6s1.6-3.6,3.6-3.6h116    c2,0,3.6,1.6,3.6,3.6S316,316.5,314,316.5z"/><rect x="446.5" y="278.3" width="35.9" height="69.2"/><path d="M477.6,419.6h-38.3v-68.6v-76.4V206h-76.2v68.6v76.4v68.6H148.9v-68.6v-76.4V206H72.7v68.6v76.4v68.6H34.3    c-2,0-3.6,1.6-3.6,3.6s1.6,3.6,3.6,3.6h443.3c2,0,3.6-1.6,3.6-3.6S479.6,419.6,477.6,419.6z"/></g></g></svg>
