<svg xmlns="http://www.w3.org/2000/svg" fill="#ffffff" viewBox="0 0 94.51 125" x="0px" y="0px"><title>Grocery</title><g data-name="Layer 2"><g data-name="Layer 51"><path d="M53.42,30.44H36.14a1,1,0,0,1-1-1V12.19a2,2,0,0,0-2-2h-.79a2,2,0,0,0-2,2V29.46a1,1,0,0,1-1,1H12.2a2,2,0,0,0-2,2v.79a2,2,0,0,0,2,2H29.47a1,1,0,0,1,1,1V53.41a2,2,0,0,0,2,2h.79a2,2,0,0,0,2-2V36.14a1,1,0,0,1,1-1H53.42a2,2,0,0,0,2-2v-.79A2,2,0,0,0,53.42,30.44Z"/><path d="M66.66,77.51a18.44,18.44,0,0,0-3-13.62,12.89,12.89,0,0,0-10.78-5.8,15.4,15.4,0,0,0-4.27.64,1,1,0,0,1-1.25-1.06,41.25,41.25,0,0,1,1.46-6.94,2,2,0,0,0-1.19-2.4L46.89,48a2,2,0,0,0-2.56,1.26A61.88,61.88,0,0,0,42.62,58a1,1,0,0,1-1.25.81,15.51,15.51,0,0,0-4.47-.7,12.89,12.89,0,0,0-10.78,5.8,18.44,18.44,0,0,0-3,13.62A31.85,31.85,0,0,0,26.79,88c1.51,2.73,7.1,11.62,15.45,11.62a11.58,11.58,0,0,0,2.66-.31,11.58,11.58,0,0,0,2.66.31h0C55.91,99.66,61.49,90.76,63,88A31.84,31.84,0,0,0,66.66,77.51Zm-7.77,8.24c-1.55,2.79-7.06,11.13-13.68,8.79a.94.94,0,0,0-.63,0c-6.62,2.34-12.13-6-13.68-8.79-2.51-4.53-5.46-12.84-1-19.11,5-6.94,12.36-2.61,14.41-1.27a1,1,0,0,0,1.07,0c2-1.34,9.42-5.67,14.41,1.27C64.35,72.91,61.4,81.22,58.89,85.75Z"/><path d="M85.34,22.54a1,1,0,0,1-.06-.33V16.28H86a2,2,0,0,0,2-2V3.52a2,2,0,0,0-2-2H62.91a2,2,0,0,0-2,2v10.8a2,2,0,0,0,2,2h.72v5.94a1,1,0,0,1-.06.33L54.52,42.67a2,2,0,0,0-.11.65v11a2,2,0,0,0,1.67,1.94l.68.12a2,2,0,0,0,2.36-1.92V44.25a1,1,0,0,1,.06-.33l9.11-20.28a1,1,0,0,0,.06-.33V17.26a1,1,0,0,1,1-1H79.59a1,1,0,0,1,1,1v6.06a1,1,0,0,0,.06.33l9.11,20.28a1,1,0,0,1,.06.33V94.31a1,1,0,0,1-1,1H62.42a2,2,0,0,0-1.47.67l-.67.73A2,2,0,0,0,61.7,100H92.54a2,2,0,0,0,2-2V43.32a2,2,0,0,0-.11-.65ZM83.06,10.39a1,1,0,0,1-1,1H66.84a1,1,0,0,1-1-1V7.45a1,1,0,0,1,1-1H82.07a1,1,0,0,1,1,1Z"/><path d="M16.28,55.8A28.32,28.32,0,1,1,50,10.31a2,2,0,0,0,2.37,0l.46-.34a2,2,0,0,0,0-3.13A32.64,32.64,0,0,0,33.26,0,32.8,32.8,0,0,0,13.67,59.44,2,2,0,0,0,16.4,59l.32-.45A2,2,0,0,0,16.28,55.8Z"/></g></g></svg>
