<svg xmlns="http://www.w3.org/2000/svg" xmlns:xlink="http://www.w3.org/1999/xlink" xml:space="preserve" style="shape-rendering:geometricPrecision;text-rendering:geometricPrecision;image-rendering:optimizeQuality;" viewBox="0 0 0.333339 0.41667375" x="0px" y="0px" fill-rule="evenodd" clip-rule="evenodd"><defs><style type="text/css">

    .fil0 {fill:black}

  </style></defs><g><path class="fil0" d="M0.166673 0.0371535c0.0715197,0 0.129512,0.0579921 0.129512,0.129512 0,0.0715276 -0.0579921,0.12952 -0.129512,0.12952 -0.0715276,0 -0.12952,-0.0579921 -0.12952,-0.12952 0,-0.0715197 0.0579921,-0.129512 0.12952,-0.129512zm0.166661 -0.0371535l0 0.333335 -0.333331 0 0 -0.333335 0.333331 0zm-0.0205551 0.0205591l-0.29222 0 0 0.29222 0.29222 0 0 -0.29222zm-0.210602 0.226717l0.0644961 -0.0644882 0.0644843 0.0644882c0.0105827,0.0106063 0.0267244,-0.00552362 0.0161181,-0.016126l-0.0644882 -0.0644921 0.0644882 -0.0644803c0.0103898,-0.010374 -0.0055,-0.0267441 -0.0161181,-0.016126l-0.0644843 0.0644921 -0.0644961 -0.0644921c-0.0106142,-0.0106181 -0.0265118,0.00575197 -0.0161181,0.016126l0.0644843 0.0644803 -0.0644843 0.0644921c-0.0106024,0.0106024 0.00552756,0.0267283 0.0161181,0.016126z"/></g></svg>
