<svg xmlns="http://www.w3.org/2000/svg" xmlns:xlink="http://www.w3.org/1999/xlink" version="1.1" x="0px" y="0px" viewBox="0 0 512 640" enable-background="new 0 0 512 512" xml:space="preserve"><g><path d="M177.8,268.4l-23.2,77c-1.4,7.1,4.8,13.4,12,12l77-23.2c4.9-1,9.4-3.4,13-6.9l246-246c9.9-9.9,9.9-26,0-35.9L466.6,9.4   c-9.9-9.9-26-9.9-35.9,0l-246,246C181.2,259,178.7,263.5,177.8,268.4z"/><path d="M484.6,256c-14,0-25.4,11.4-25.4,25.4v177.8H52.8V52.8h177.8c14,0,25.4-11.4,25.4-25.4S244.6,2,230.6,2H27.4   C13.4,2,2,13.4,2,27.4v457.2c0,14,11.4,25.4,25.4,25.4h457.2c14,0,25.4-11.4,25.4-25.4V281.4C510,267.4,498.6,256,484.6,256z"/></g></svg>
