<svg xmlns="http://www.w3.org/2000/svg" data-name="Layer 1" viewBox="0 0 100 125" x="0px" y="0px"><title>04</title><path d="M81.6,18.54a19.55,19.55,0,0,0-14.76-6.79h-.06A24.41,24.41,0,0,0,50,18.92c-5.34-5.38-10.4-8.11-15.06-8.11A21.9,21.9,0,0,0,18.4,18.54c-8.94,10.16-8.94,26.67,0,36.86L50,89.18,81.6,55.35a27.74,27.74,0,0,0,6.7-18.41A27.74,27.74,0,0,0,81.6,18.54Zm-3,34.13L50,83.33,21.4,52.71c-7.66-8.69-7.66-22.83,0-31.53a18,18,0,0,1,13.55-6.37c3.86,0,8.55,2.89,13.58,8.35L50,24.79l1.47-1.65a20.83,20.83,0,0,1,15.29-7.4h0A15.39,15.39,0,0,1,78.6,21.18a23.75,23.75,0,0,1,5.71,15.76A23.72,23.72,0,0,1,78.64,52.67Z"/></svg>
