<svg xmlns="http://www.w3.org/2000/svg" xmlns:xlink="http://www.w3.org/1999/xlink" xml:space="preserve" version="1.1" style="shape-rendering:geometricPrecision;text-rendering:geometricPrecision;image-rendering:optimizeQuality;" viewBox="0 0 847 1058.75" x="0px" y="0px" fill-rule="evenodd" clip-rule="evenodd"><defs><style type="text/css">

    .fil0 {fill:black}

  </style></defs><g><path class="fil0" d="M630 369c-108,0 -195,88 -195,196 0,108 87,195 195,195 108,0 196,-87 196,-195 0,-108 -88,-196 -196,-196zm-43 239l141 -141c24,-24 60,12 36,36l-159 159c-10,10 -26,10 -36,0l-72 -71c-24,-24 12,-60 36,-37l54 54zm-252 -416l289 0c50,0 91,42 91,92l0 73c-26,-11 -55,-16 -85,-16 -123,0 -224,100 -224,224 0,19 3,39 8,57l-302 0c-50,0 -91,-41 -91,-92 0,-133 0,-266 0,-399 0,-26 21,-45 47,-45l194 0c20,0 36,14 46,38l27 68z"/></g></svg>
