<svg xmlns="http://www.w3.org/2000/svg" xmlns:xlink="http://www.w3.org/1999/xlink" xml:space="preserve" version="1.1" style="shape-rendering:geometricPrecision;text-rendering:geometricPrecision;image-rendering:optimizeQuality;" viewBox="0 0 329 410" x="0px" y="0px" fill-rule="evenodd" clip-rule="evenodd"><defs><style type="text/css">

    .fil0 {fill:black}

  </style></defs><g><path class="fil0" d="M0 0l83 0 0 92c0,11 9,20 19,20l138 0c10,0 19,-9 19,-20l0 -92 22 0 48 49 0 279 -329 0 0 -328zm39 166l251 0c6,0 12,5 12,12l0 121c0,6 -6,12 -12,12l-251 0c-6,0 -12,-6 -12,-12l0 -121c0,-7 6,-12 12,-12z"/><rect class="fil0" x="66" y="192" width="197.137" height="18.1933"/><rect class="fil0" x="66" y="229" width="197.137" height="18.1933"/><rect class="fil0" x="66" y="267" width="197.137" height="18.1933"/><rect class="fil0" x="184" y="18" width="36.3959" height="73.5437"/></g></svg>
